<svg version="1.1" xmlns="http://www.w3.org/2000/svg" xmlns:xlink="http://www.w3.org/1999/xlink" x="0px" y="0px" viewBox="-47 170.9 500 500" style="enable-background:new -47 170.9 500 500;" xml:space="preserve">

	<path id="background" fill="#FFC83B" d="M453.1,238.5c0-37.3-30.2-67.6-67.6-67.6H20.6c-37.3,0-67.7,30.2-67.7,67.6v364.8 c0,37.3,30.2,67.6,67.6,67.6h364.8c37.3,0,67.6-30.2,67.6-67.6V238.5H453.1z"/>

	<g id="icon" fill="#FFFFFF">
		
    <g id="macro">
      <path class="st1" d="M263.2,600.9c59,0,106.8-48,106.8-107.2v-71.9c0-9.8-7.5-12.7-14-5.5c-3.9,4.3-90.9,92.3-134.5,140V452.1 c0-2.6,1.1-4.6,4.2-4.6c44.7,0,85.1-48.3,85.1-94.8c0-34.3-7.2-73.5-23.1-105.4c-2.1-4.1-2.4-6.5-8.2-6.5c-2.7,0-5.3,1.2-6.6,3.4 c-4.1,7.2-26.4,60.1-27.8,62.6c-1.7,3.1-5.5,3.4-7.2,0c-1.3-2.6-23.7-55.5-27.8-62.6c-1.3-2.2-3.8-3.4-6.6-3.4 c-2.7,0-5.3,1.2-6.6,3.4c-4.1,7.2-26.5,60-27.8,62.6c-1.7,3.4-5.5,3.1-7.2,0c-1.4-2.6-23.7-55.5-27.8-62.6 c-1.3-2.2-3.8-3.4-6.6-3.4c-5.8,0-6.1,2.3-8.2,6.5c-15.9,31.9-23.1,71-23.1,105.4c0,46.4,40.4,94.8,85.1,94.8c3.1,0,4.2,2,4.2,4.6 v148.8L263.2,600.9L263.2,600.9z"/>
      <path class="st1" d="M36,421.7c0,9.3,0.2,54.8,0.2,71.9c0,59.2,47.8,107.2,106.8,107.2h15.8v-72.5c0,0-103.5-106.5-108.6-112.2 C43.6,409,36,411.9,36,421.7L36,421.7z"/>
    </g>

	</g>
	
</svg>