<svg version="1.1" xmlns="http://www.w3.org/2000/svg" xmlns:xlink="http://www.w3.org/1999/xlink" x="0px" y="0px" viewBox="-47 170.9 500 500" style="enable-background:new -47 170.9 500 500;" xml:space="preserve">

	<g id="icon-mask" fill="#FFFFFF">
			
  <g id="macro">
    <path class="st1" d="M286.4,670.9c81.7,0,148.1-66.7,148.1-148.9V422c0-13.7-10.4-17.7-19.4-7.7c-5.3,5.9-126,128.2-186.4,194.4 V464.2c0-3.6,1.5-6.4,5.8-6.4c61.9,0,117.9-67.1,117.9-131.6c0-47.7-10-102.1-32-146.3c-2.9-5.8-3.3-9-11.3-9 c-3.8,0-7.3,1.7-9.1,4.7c-5.7,10-36.6,83.5-38.6,87c-2.4,4.3-7.6,4.8-10,0c-1.8-3.6-32.9-77-38.6-87c-1.7-3-5.3-4.7-9.1-4.7 c-3.8,0-7.3,1.7-9.1,4.7c-5.7,10-36.8,83.4-38.6,87c-2.4,4.8-7.6,4.3-10,0c-2-3.5-32.9-77-38.6-87c-1.7-3-5.3-4.7-9.1-4.7 c-8,0-8.5,3.2-11.3,9c-22,44.3-32,98.6-32,146.3c0,64.5,56,131.6,117.9,131.6c4.3,0,5.8,2.8,5.8,6.4v206.7L286.4,670.9 L286.4,670.9z"/>
    <path class="st1" d="M-28.5,422c0,12.9,0.2,76.1,0.2,99.9c0,82.2,66.3,148.9,148,148.9h21.9V570.2c0,0-143.4-147.9-150.6-155.8 C-18,404.4-28.5,408.4-28.5,422L-28.5,422z"/>
  </g>	

	</g>

</svg>